{
	"asset":{
		"generator":"Khronos glTF Blender I/O v3.6.27",
		"version":"2.0"
	},
	"scene":0,
	"scenes":[
		{
			"name":"Scene",
			"nodes":[
				0,
				1
			]
		}
	],
	"nodes":[
		{
			"mesh":0,
			"name":"logo"
		},
		{
			"mesh":1,
			"name":"bubble"
		}
	],
	"materials":[
		{
			"doubleSided":true,
			"name":"Material.002",
			"pbrMetallicRoughness":{
				"baseColorFactor":[
					0.800000011920929,
					0.800000011920929,
					0.800000011920929,
					1
				],
				"metallicFactor":0,
				"roughnessFactor":0.5
			}
		},
		{
			"doubleSided":true,
			"name":"Material.001",
			"pbrMetallicRoughness":{
				"baseColorFactor":[
					0,
					0.3813258707523346,
					0.20863690972328186,
					1
				],
				"metallicFactor":0,
				"roughnessFactor":0.5
			}
		}
	],
	"meshes":[
		{
			"name":"Mesh_0",
			"primitives":[
				{
					"attributes":{
						"POSITION":0,
						"NORMAL":1,
						"TEXCOORD_0":2
					},
					"indices":3,
					"material":0
				}
			]
		},
		{
			"name":"Mesh_1",
			"primitives":[
				{
					"attributes":{
						"POSITION":4,
						"NORMAL":5,
						"TEXCOORD_0":6
					},
					"indices":7,
					"material":1
				}
			]
		}
	],
	"accessors":[
		{
			"bufferView":0,
			"componentType":5126,
			"count":3075,
			"max":[
				0.1909671276807785,
				0.19032642245292664,
				0.03324038162827492
			],
			"min":[
				-0.1844657063484192,
				-0.1895114928483963,
				0.018758760765194893
			],
			"type":"VEC3"
		},
		{
			"bufferView":1,
			"componentType":5126,
			"count":3075,
			"type":"VEC3"
		},
		{
			"bufferView":2,
			"componentType":5126,
			"count":3075,
			"type":"VEC2"
		},
		{
			"bufferView":3,
			"componentType":5123,
			"count":7293,
			"type":"SCALAR"
		},
		{
			"bufferView":4,
			"componentType":5126,
			"count":363,
			"max":[
				0.25299978256225586,
				0.26100000739097595,
				0.019483711570501328
			],
			"min":[
				-0.2590000033378601,
				-0.25027137994766235,
				-0.019483434036374092
			],
			"type":"VEC3"
		},
		{
			"bufferView":5,
			"componentType":5126,
			"count":363,
			"type":"VEC3"
		},
		{
			"bufferView":6,
			"componentType":5126,
			"count":363,
			"type":"VEC2"
		},
		{
			"bufferView":7,
			"componentType":5123,
			"count":978,
			"type":"SCALAR"
		}
	],
	"bufferViews":[
		{
			"buffer":0,
			"byteLength":36900,
			"byteOffset":0,
			"target":34962
		},
		{
			"buffer":0,
			"byteLength":36900,
			"byteOffset":36900,
			"target":34962
		},
		{
			"buffer":0,
			"byteLength":24600,
			"byteOffset":73800,
			"target":34962
		},
		{
			"buffer":0,
			"byteLength":14586,
			"byteOffset":98400,
			"target":34963
		},
		{
			"buffer":0,
			"byteLength":4356,
			"byteOffset":112988,
			"target":34962
		},
		{
			"buffer":0,
			"byteLength":4356,
			"byteOffset":117344,
			"target":34962
		},
		{
			"buffer":0,
			"byteLength":2904,
			"byteOffset":121700,
			"target":34962
		},
		{
			"buffer":0,
			"byteLength":1956,
			"byteOffset":124604,
			"target":34963
		}
	],
	"buffers":[
		{
			"byteLength":126560,
			"uri":"data:application/octet-stream;base64,"
		}
	]
}
