{
	"asset":{
		"generator":"Khronos glTF Blender I/O v3.6.27",
		"version":"2.0"
	},
	"scene":0,
	"scenes":[
		{
			"name":"Scene",
			"nodes":[
				0
			]
		}
	],
	"nodes":[
		{
			"mesh":0,
			"name":"logo"
		}
	],
	"materials":[
		{
			"doubleSided":true,
			"name":"Material.004",
			"pbrMetallicRoughness":{
				"baseColorFactor":[
					0.16513176262378693,
					0.37626194953918457,
					0.3139887750148773,
					1
				],
				"metallicFactor":0,
				"roughnessFactor":0.5
			}
		}
	],
	"meshes":[
		{
			"name":"Curve.016",
			"primitives":[
				{
					"attributes":{
						"POSITION":0,
						"NORMAL":1,
						"TEXCOORD_0":2
					},
					"indices":3,
					"material":0
				}
			]
		}
	],
	"accessors":[
		{
			"bufferView":0,
			"componentType":5126,
			"count":6924,
			"max":[
				0.19904370605945587,
				0.19816631078720093,
				0.04532848671078682
			],
			"min":[
				-0.1984724998474121,
				-0.1994340717792511,
				0.018037376925349236
			],
			"type":"VEC3"
		},
		{
			"bufferView":1,
			"componentType":5126,
			"count":6924,
			"type":"VEC3"
		},
		{
			"bufferView":2,
			"componentType":5126,
			"count":6924,
			"type":"VEC2"
		},
		{
			"bufferView":3,
			"componentType":5123,
			"count":13632,
			"type":"SCALAR"
		}
	],
	"bufferViews":[
		{
			"buffer":0,
			"byteLength":83088,
			"byteOffset":0,
			"target":34962
		},
		{
			"buffer":0,
			"byteLength":83088,
			"byteOffset":83088,
			"target":34962
		},
		{
			"buffer":0,
			"byteLength":55392,
			"byteOffset":166176,
			"target":34962
		},
		{
			"buffer":0,
			"byteLength":27264,
			"byteOffset":221568,
			"target":34963
		}
	],
	"buffers":[
		{
			"byteLength":248832,
			"uri":"data:application/octet-stream;base64,"
		}
	]
}
