{
	"asset":{
		"generator":"Khronos glTF Blender I/O v3.6.27",
		"version":"2.0"
	},
	"scene":0,
	"scenes":[
		{
			"name":"Scene",
			"nodes":[
				0,
				1
			]
		}
	],
	"nodes":[
		{
			"mesh":0,
			"name":"logo"
		},
		{
			"mesh":1,
			"name":"bubble"
		}
	],
	"materials":[
		{
			"doubleSided":true,
			"name":"Material.002",
			"pbrMetallicRoughness":{
				"baseColorFactor":[
					0.800000011920929,
					0.800000011920929,
					0.800000011920929,
					1
				],
				"metallicFactor":0,
				"roughnessFactor":0.5
			}
		},
		{
			"doubleSided":true,
			"name":"Material.001",
			"pbrMetallicRoughness":{
				"baseColorFactor":[
					0,
					0.3813258707523346,
					0.20863690972328186,
					1
				],
				"metallicFactor":0,
				"roughnessFactor":0.5
			}
		}
	],
	"meshes":[
		{
			"name":"Mesh_0",
			"primitives":[
				{
					"attributes":{
						"POSITION":0,
						"NORMAL":1,
						"TEXCOORD_0":2
					},
					"indices":3,
					"material":0
				}
			]
		},
		{
			"name":"Mesh_1",
			"primitives":[
				{
					"attributes":{
						"POSITION":4,
						"NORMAL":5,
						"TEXCOORD_0":6
					},
					"indices":7,
					"material":1
				}
			]
		}
	],
	"accessors":[
		{
			"bufferView":0,
			"componentType":5126,
			"count":5589,
			"max":[
				0.190934956073761,
				0.1902812272310257,
				0.03324033319950104
			],
			"min":[
				-0.1844291239976883,
				-0.189497172832489,
				0.018759949132800102
			],
			"type":"VEC3"
		},
		{
			"bufferView":1,
			"componentType":5126,
			"count":5589,
			"type":"VEC3"
		},
		{
			"bufferView":2,
			"componentType":5126,
			"count":5589,
			"type":"VEC2"
		},
		{
			"bufferView":3,
			"componentType":5123,
			"count":14892,
			"type":"SCALAR"
		},
		{
			"bufferView":4,
			"componentType":5126,
			"count":527,
			"max":[
				0.25299978256225586,
				0.26100000739097595,
				0.019483711570501328
			],
			"min":[
				-0.2590000033378601,
				-0.25027137994766235,
				-0.019483434036374092
			],
			"type":"VEC3"
		},
		{
			"bufferView":5,
			"componentType":5126,
			"count":527,
			"type":"VEC3"
		},
		{
			"bufferView":6,
			"componentType":5126,
			"count":527,
			"type":"VEC2"
		},
		{
			"bufferView":7,
			"componentType":5123,
			"count":1536,
			"type":"SCALAR"
		}
	],
	"bufferViews":[
		{
			"buffer":0,
			"byteLength":67068,
			"byteOffset":0,
			"target":34962
		},
		{
			"buffer":0,
			"byteLength":67068,
			"byteOffset":67068,
			"target":34962
		},
		{
			"buffer":0,
			"byteLength":44712,
			"byteOffset":134136,
			"target":34962
		},
		{
			"buffer":0,
			"byteLength":29784,
			"byteOffset":178848,
			"target":34963
		},
		{
			"buffer":0,
			"byteLength":6324,
			"byteOffset":208632,
			"target":34962
		},
		{
			"buffer":0,
			"byteLength":6324,
			"byteOffset":214956,
			"target":34962
		},
		{
			"buffer":0,
			"byteLength":4216,
			"byteOffset":221280,
			"target":34962
		},
		{
			"buffer":0,
			"byteLength":3072,
			"byteOffset":225496,
			"target":34963
		}
	],
	"buffers":[
		{
			"byteLength":228568,
			"uri":"data:application/octet-stream;base64,"
		}
	]
}
